<svg width="539" height="76" viewBox="0 0 539 76" fill="none" xmlns="http://www.w3.org/2000/svg">
<g clip-path="url(#clip0_6_4206)">
<path d="M61.0559 66.848C61.0871 64.3521 60.7356 62.4008 62.36 60.4211C73.1327 47.2893 83.7893 34.044 94.477 20.8243C94.803 20.4244 95.1148 20.0131 95.5145 19.5054C94.8644 18.698 94.219 17.8954 93.5783 17.0975C90.0771 12.7637 86.5562 8.44691 83.089 4.08761C82.8416 3.72564 82.5055 3.43314 82.113 3.23801C81.7204 3.04288 81.2844 2.95163 80.8466 2.97296C60.0269 3.00132 39.2062 3.01834 18.3845 3.02401C17.7665 3.02401 16.9331 3.28778 16.5673 3.73024C12.3631 8.83548 8.22981 13.9861 4.09364 19.131C3.99997 19.2703 3.9184 19.4174 3.84984 19.5707C4.14751 19.9649 4.44801 20.379 4.76836 20.7761C15.3965 33.9164 25.9708 47.1021 36.7152 60.146C38.3935 62.1852 38.2461 64.1763 38.1837 66.7913L0 19.5848C0.215455 19.2729 0.40256 18.958 0.629355 18.6772C5.40338 12.7646 10.1755 6.84916 14.9458 0.930866C15.1558 0.628395 15.4393 0.384326 15.7696 0.221593C16.0999 0.0588601 16.4661 -0.0171939 16.8338 0.000577542C38.6855 0.0232675 60.5447 0.0393395 82.4115 0.0487937C82.9785 0.0487937 83.7552 0.304056 84.0954 0.718147C89.0934 6.80756 94.0347 12.9565 98.9873 19.0913C99.0941 19.2544 99.1889 19.425 99.2708 19.6019L61.0559 66.848Z" fill="#B1A086"/>
<path d="M35.3994 19.5113V16.3262H63.9273V19.5113C61.7643 19.5113 59.6551 19.5113 57.5459 19.5113C54.711 19.5113 53.2283 20.9152 53.2255 23.7656C53.2028 38.6843 53.2028 53.6039 53.2255 68.5244C53.2255 71.4032 54.7563 72.8156 57.665 72.8185H63.8735V76.0121H35.4164V72.81H41.418C44.6328 72.81 46.0871 71.3919 46.0899 68.1472C46.107 53.4649 46.107 38.7807 46.0899 24.0946C46.0899 20.918 44.6328 19.5169 41.4917 19.5141L35.3994 19.5113Z" fill="#B1A086"/>
<path d="M291.587 53.4808H287.544C289.557 43.225 291.55 33.0826 293.54 22.9402L294.044 22.7246C299.93 31.0064 305.529 39.4925 311.51 48.0523C317.297 39.5435 322.992 31.1511 328.684 22.7672L329.251 22.8295C331.276 32.9918 333.303 43.1541 335.352 53.444H331.205C329.847 46.3051 328.495 39.1862 327.071 31.7098C326.621 32.2771 326.337 32.6061 326.096 32.9578C321.698 39.3866 317.303 45.8154 312.911 52.2442C311.649 54.0906 311.312 54.0906 310.025 52.2159L296.553 32.6174C296.372 32.3508 296.171 32.0956 295.726 31.4829C294.305 39.033 292.947 46.2513 291.587 53.4808Z" fill="#B1A086"/>
<path d="M385.673 54.3853C379.847 54.2322 374.333 52.9672 369.514 49.3793C361.599 43.5083 361.27 33.8424 368.87 27.5771C374.047 23.3228 380.21 21.8734 386.731 22.089C392.443 22.279 397.812 23.7368 402.425 27.3758C410.056 33.3971 409.997 43.1481 402.289 49.1071C397.393 52.8849 391.768 54.2605 385.673 54.3853ZM385.999 51.3675C390.436 51.3193 395.023 50.2501 398.972 47.2351C405.056 42.595 405.328 34.6933 399.627 29.7866C392.4 23.5667 379.306 23.5128 372.023 29.6759C366.225 34.577 366.305 42.2462 372.233 46.9997C376.117 50.1168 380.647 51.3363 385.999 51.3675Z" fill="#B1A086"/>
<path d="M503.2 38.2506C503.2 33.5764 503.2 28.9033 503.2 24.231C503.2 23.4936 503.129 22.8129 504.241 22.8469C510.648 23.0937 517.069 23.1589 523.464 23.5872C527.077 23.8556 530.523 25.2101 533.353 27.4728C541.384 33.7353 540.769 44.9696 532.114 50.3642C529.024 52.2928 525.593 53.1522 522.016 53.2798C516.076 53.4925 510.126 53.4557 504.181 53.5635C503.152 53.5833 503.197 52.9735 503.2 52.2758C503.2 47.5998 503.2 42.9247 503.2 38.2506ZM507.285 50.852C512.247 50.6563 517.055 50.6336 521.826 50.2082C524.123 49.9935 526.363 49.3651 528.437 48.3533C536.168 44.5357 536.961 34.5237 529.902 29.566C527.992 28.2244 525.625 27.0673 523.351 26.795C518.129 26.1682 512.839 26.1398 507.575 25.876C507.504 25.876 507.427 25.9753 507.291 26.0774L507.285 50.852Z" fill="#B1A086"/>
<path d="M442.437 53.412C438.037 53.9083 438.037 53.9083 438.037 49.9007V22.5508C438.888 23.067 439.486 23.3336 439.968 23.7363C447.96 30.3656 455.942 37.0043 463.912 43.6524C464.907 44.4806 465.916 45.2918 467.138 46.2901C467.175 45.5215 467.214 45.0734 467.214 44.6224C467.214 38.1104 467.214 31.5984 467.214 25.0864C467.214 22.5338 466.959 22.8855 469.511 22.8571C470.078 22.8571 470.613 22.8571 471.35 22.8571V24.5588C471.35 33.7142 471.35 42.8696 471.35 52.025C471.3 52.5195 471.205 53.0083 471.067 53.4857C470.576 53.273 470.001 53.1652 469.607 52.839C460.977 45.7257 452.359 38.5983 443.752 31.4566C443.401 31.173 443.032 30.8893 442.431 30.4299L442.437 53.412Z" fill="#B1A086"/>
<path d="M124.17 53.3362V22.7246C129.942 22.8778 135.64 22.9317 141.324 23.2238C143.636 23.3269 145.924 23.738 148.128 24.4462C150.328 25.1409 152.405 26.1806 154.28 27.5264C162.064 33.3407 161.71 44.4219 153.713 49.9327C150.404 52.2017 146.659 53.1859 142.759 53.2965C136.607 53.4638 130.469 53.3362 124.17 53.3362ZM128.207 50.8715C133.273 50.6559 138.183 50.6531 143.042 50.1511C145.521 49.8803 147.921 49.1196 150.104 47.9133C156.624 44.2574 157.534 35.7997 152.156 30.5867C149.914 28.3645 146.979 26.979 143.839 26.6613C138.784 26.1678 133.687 26.0941 128.607 25.8303C128.493 25.8303 128.371 25.9523 128.198 26.0459L128.207 50.8715Z" fill="#B1A086"/>
<path d="M220.558 53.5463L231.75 36.421C234.488 32.2347 237.229 28.0494 239.971 23.865C240.915 22.4298 241.338 22.4469 242.282 23.8962C248.481 33.4865 254.674 43.0796 260.862 52.6755C260.984 52.8656 261.077 53.0755 261.321 53.5264C259.855 53.5264 258.563 53.6058 257.29 53.4782C256.899 53.4385 256.482 52.8911 256.21 52.4884C254.393 49.7854 252.646 47.0343 250.784 44.3682C250.582 44.1093 250.329 43.8946 250.04 43.737C249.752 43.5795 249.435 43.4825 249.108 43.4521C243.777 43.384 238.445 43.384 233.114 43.4521C232.765 43.4806 232.426 43.5804 232.118 43.7453C231.81 43.9102 231.539 44.1367 231.322 44.4107C229.505 46.9974 227.773 49.6464 226.091 52.321C225.524 53.2229 224.904 53.6711 223.823 53.5576C222.826 53.4697 221.853 53.5463 220.558 53.5463ZM241.114 29.3446L233.856 40.406H248.289L241.114 29.3446Z" fill="#B1A086"/>
<path d="M189.011 22.8644C190.201 22.8644 191.279 22.7764 192.342 22.9211C192.648 22.9608 193.076 23.6642 193.082 24.0726C193.138 27.6122 193.116 31.1632 193.116 34.6915C193.116 40.4973 193.09 46.3031 193.136 52.1089C193.136 53.1838 192.909 53.6887 191.735 53.5667C190.828 53.5129 189.919 53.5063 189.011 53.5468V22.8644Z" fill="#B1A086"/>
</g>
<defs>
<clipPath id="clip0_6_4206">
<rect width="539" height="76" fill="white"/>
</clipPath>
</defs>
</svg>
